<?xml version="1.0" encoding="UTF-8"?>
<svg version="1.1" xmlns="http://www.w3.org/2000/svg" width="1000" height="500">
<path d="M0 0 C330 0 660 0 1000 0 C1000 165 1000 330 1000 500 C670 500 340 500 0 500 C0 335 0 170 0 0 Z " fill="#FEFEFE" transform="translate(0,0)"/>
<path d="M0 0 C3.85049208 3.08765874 7.53527851 6.34746505 11.21289062 9.63769531 C12.58752555 10.80479211 13.96247364 11.97152027 15.33789062 13.13769531 C33.7015245 29.36602292 33.7015245 29.36602292 37.21289062 36.63769531 C37.19827016 42.04726704 34.72344655 44.90087092 31.08789062 48.57519531 C30.55655518 49.12804199 30.02521973 49.68088867 29.4777832 50.25048828 C28.33072039 51.4381331 27.17758016 52.61993235 26.01904297 53.79638672 C24.19492691 55.65600869 22.40037835 57.54102619 20.60742188 59.43066406 C6.24538107 74.39136156 -11.63782522 88.45454588 -31.78710938 94.63769531 C-32.44710937 94.63769531 -33.10710937 94.63769531 -33.78710938 94.63769531 C-33.71808732 99.38877675 -33.63005185 104.13899024 -33.5246582 108.8894043 C-33.49147827 110.50421494 -33.46342479 112.11913962 -33.44067383 113.73413086 C-33.40699913 116.06055123 -33.35467974 118.38593315 -33.29882812 120.71191406 C-33.2924382 121.42981613 -33.28604828 122.1477182 -33.27946472 122.88737488 C-33.15167881 127.27939387 -32.58265633 130.20019921 -29.78710938 133.63769531 C-27.80465946 134.93425851 -27.80465946 134.93425851 -25.51367188 135.70019531 C-24.68867187 136.02246094 -23.86367188 136.34472656 -23.01367188 136.67675781 C-21.72589844 137.15242188 -21.72589844 137.15242188 -20.41210938 137.63769531 C-9.73107233 141.61880912 -9.73107233 141.61880912 -5.78710938 146.63769531 C-4.81835938 148.95410156 -4.81835938 148.95410156 -4.28710938 151.20019531 C-3.06714128 155.42100448 -1.52150434 157.18085652 2.21289062 159.63769531 C3.94021699 163.09234804 3.56704745 166.85346409 3.21289062 170.63769531 C1.82288234 174.1899387 0.61406823 175.36416513 -2.53710938 177.51269531 C-6.5673073 178.90776383 -8.69061619 178.80812194 -12.78710938 177.63769531 C-15.69373179 175.76729031 -18.21427387 173.78336633 -19.78710938 170.63769531 C-20.33110222 166.09847631 -20.41000399 162.68326841 -18.03710938 158.70019531 C-15.99349992 156.82688665 -14.35251506 155.64553326 -11.78710938 154.63769531 C-11.90052472 152.22892274 -11.90052472 152.22892274 -12.78710938 149.63769531 C-17.18241958 146.50407828 -22.23286564 144.82210068 -27.25976562 142.97558594 C-31.94630733 141.18144522 -35.98063071 139.23190554 -38.90966797 135.02563477 C-40.20005737 131.5138655 -40.03209284 128.06187219 -39.98242188 124.37207031 C-39.97959198 123.57867249 -39.97676208 122.78527466 -39.97384644 121.96783447 C-39.96267717 119.44096614 -39.93757882 116.914456 -39.91210938 114.38769531 C-39.90207536 112.67155461 -39.89295024 110.95540833 -39.88476562 109.23925781 C-39.86274851 105.03859958 -39.82824124 100.83820812 -39.78710938 96.63769531 C-41.43710937 96.96769531 -43.08710937 97.29769531 -44.78710938 97.63769531 C-44.69492668 105.27341827 -44.58763239 112.90882063 -44.46972656 120.54418945 C-44.43139506 123.14277298 -44.39654964 125.74141034 -44.36523438 128.34008789 C-44.31967472 132.07099674 -44.26166475 135.80153371 -44.20117188 139.53222656 C-44.18962067 140.69792679 -44.17806946 141.86362701 -44.16616821 143.06465149 C-44.14629852 144.1455455 -44.12642883 145.22643951 -44.10595703 146.34008789 C-44.09263336 147.29273026 -44.07930969 148.24537262 -44.06558228 149.22688293 C-43.94251665 151.89810879 -43.94251665 151.89810879 -41.78710938 154.63769531 C-39.80271749 155.09312952 -37.81759572 155.5460964 -35.82617188 155.96972656 C-32.64571552 157.0116002 -30.90457302 159.13523828 -28.78710938 161.63769531 C-28.45710937 161.96769531 -28.12710938 162.29769531 -27.78710938 162.63769531 C-27.70079063 163.98036944 -27.68004464 165.32743853 -27.68945312 166.67285156 C-27.69428711 167.88618164 -27.69428711 167.88618164 -27.69921875 169.12402344 C-27.71178711 170.39922852 -27.71178711 170.39922852 -27.72460938 171.70019531 C-27.72912109 172.55419922 -27.73363281 173.40820312 -27.73828125 174.28808594 C-27.75010564 176.40465195 -27.76804169 178.52118216 -27.78710938 180.63769531 C-27.00980469 180.91097656 -26.2325 181.18425781 -25.43164062 181.46582031 C-21.74653075 183.09880844 -20.62394317 185.10008948 -18.78710938 188.63769531 C-18.12643151 192.6017625 -18.58566861 194.2571961 -20.47460938 197.82519531 C-22.87159795 200.74045169 -24.27436267 202.28049772 -27.78710938 203.63769531 C-32.0614609 203.84620027 -35.03638566 203.11097766 -38.66210938 200.82519531 C-41.61287639 197.78764103 -42.61404826 195.96449722 -43.16210938 191.76269531 C-42.6789815 187.73662966 -41.38419675 185.72612354 -38.78710938 182.63769531 C-37.13710938 181.97769531 -35.48710938 181.31769531 -33.78710938 180.63769531 C-34.11710938 175.02769531 -34.44710937 169.41769531 -34.78710938 163.63769531 C-37.10742188 163.29738281 -37.10742188 163.29738281 -39.47460938 162.95019531 C-44.28686619 162.00273965 -46.71526068 160.60137105 -49.78710938 156.63769531 C-51.08374859 154.04441688 -50.90714507 152.17361463 -50.90063477 149.27001953 C-50.90052147 147.58850296 -50.90052147 147.58850296 -50.90040588 145.87301636 C-50.8952446 144.65840729 -50.89008331 143.44379822 -50.88476562 142.19238281 C-50.88335068 140.95223419 -50.88193573 139.71208557 -50.88047791 138.43435669 C-50.87582034 135.13651398 -50.86683377 131.83871985 -50.85577393 128.54089355 C-50.84554669 125.17603145 -50.84097747 121.81116223 -50.8359375 118.44628906 C-50.82489206 111.84340538 -50.80814184 105.24055432 -50.78710938 98.63769531 C-52.43710937 98.63769531 -54.08710938 98.63769531 -55.78710938 98.63769531 C-55.78710938 135.59769531 -55.78710938 172.55769531 -55.78710938 210.63769531 C-54.13710938 211.29769531 -52.48710937 211.95769531 -50.78710938 212.63769531 C-47.97775914 215.49622454 -47.35572183 217.60821276 -47.34960938 221.57519531 C-47.45887245 225.10803482 -47.71215765 226.50920663 -49.53710938 229.63769531 C-52.21393407 232.01709504 -54.32716168 233.48639164 -57.93554688 233.86035156 C-62.39717033 233.53942777 -65.18854728 232.86390125 -68.34960938 229.57519531 C-70.28371621 226.93875918 -71.23571128 224.84432714 -71.47460938 221.57519531 C-70.61221034 216.63600082 -69.32549243 215.09183115 -65.78710938 211.63769531 C-65.12710938 211.30769531 -64.46710938 210.97769531 -63.78710938 210.63769531 C-63.78710938 174.00769531 -63.78710938 137.37769531 -63.78710938 99.63769531 C-65.27210938 99.14269531 -65.27210938 99.14269531 -66.78710938 98.63769531 C-66.77600632 99.32594391 -66.76490326 100.0141925 -66.75346375 100.72329712 C-66.64275642 107.89336151 -66.56739404 115.0631827 -66.51245117 122.23388672 C-66.4901476 124.90950458 -66.45322337 127.58378524 -66.40991211 130.25927734 C-66.34918957 134.10694297 -66.32088098 137.95370009 -66.29882812 141.80175781 C-66.2730217 142.99572174 -66.24721527 144.18968567 -66.22062683 145.41983032 C-66.21750234 154.69188956 -66.21750234 154.69188956 -69.13671875 158.34863281 C-71.93132194 160.76224736 -74.09101203 161.91361663 -77.59960938 163.01269531 C-78.57542969 163.32980469 -79.55125 163.64691406 -80.55664062 163.97363281 C-81.66072266 164.30234375 -81.66072266 164.30234375 -82.78710938 164.63769531 C-82.94987491 167.20275955 -83.06824922 169.75744953 -83.16210938 172.32519531 C-83.21238281 173.04642578 -83.26265625 173.76765625 -83.31445312 174.51074219 C-83.46469153 178.68886984 -83.46469153 178.68886984 -81.45996094 182.20263672 C-79.96054159 183.42287548 -78.37619907 184.53677071 -76.78710938 185.63769531 C-75.17845162 188.85501082 -75.32014805 192.14845651 -75.78710938 195.63769531 C-77.52608305 199.11564266 -78.78972071 201.06025977 -82.16210938 203.01269531 C-86.91473837 204.14427365 -89.6545346 204.24754327 -94.03710938 201.88769531 C-97.19984344 199.30000381 -98.47485253 197.47508033 -99.15820312 193.45410156 C-99.28872476 189.02404382 -99.2628104 187.23858081 -96.41210938 183.63769531 C-93.78710937 181.63769531 -93.78710937 181.63769531 -91.78710938 180.63769531 C-91.78453125 179.49171875 -91.78195312 178.34574219 -91.77929688 177.16503906 C-91.52420469 163.36728486 -91.52420469 163.36728486 -88.28710938 159.20019531 C-85.18127269 156.3431271 -81.86266115 155.59881354 -77.74023438 155.12207031 C-75.38988925 154.77210229 -75.38988925 154.77210229 -73.78710938 151.63769531 C-73.45907898 149.15331585 -73.45907898 149.15331585 -73.46826172 146.34008789 C-73.44839203 145.25919388 -73.42852234 144.17829987 -73.40805054 143.06465149 C-73.39649933 141.89895126 -73.38494812 140.73325104 -73.37304688 139.53222656 C-73.35368073 138.33788498 -73.33431458 137.1435434 -73.31436157 135.91300964 C-73.25450321 132.09214455 -73.20815484 128.27124944 -73.16210938 124.45019531 C-73.12393541 121.86229143 -73.08488403 119.27440033 -73.04492188 116.68652344 C-72.94879647 110.3370274 -72.8637672 103.9874546 -72.78710938 97.63769531 C-74.43710937 97.30769531 -76.08710938 96.97769531 -77.78710938 96.63769531 C-77.77139893 97.63623535 -77.75568848 98.63477539 -77.73950195 99.66357422 C-77.68498318 103.38712418 -77.65068003 107.11063921 -77.62231445 110.83447266 C-77.60727761 112.44260604 -77.58684266 114.05069875 -77.56079102 115.65869141 C-77.52418115 117.97731595 -77.50733216 120.29539581 -77.49414062 122.61425781 C-77.47865677 123.3269986 -77.46317291 124.03973938 -77.44721985 124.77407837 C-77.4453172 130.48600436 -79.00431033 134.27494959 -82.40820312 138.78613281 C-85.89192936 141.49760447 -89.72072496 142.7803635 -93.84960938 144.26269531 C-95.46667803 144.85583354 -97.08261503 145.45206836 -98.69726562 146.05175781 C-99.76666382 146.43775146 -99.76666382 146.43775146 -100.85766602 146.83154297 C-103.05160184 147.67604249 -103.05160184 147.67604249 -105.78710938 149.63769531 C-106.53902915 152.00661028 -106.53902915 152.00661028 -105.78710938 154.63769531 C-103.84362436 156.36993195 -101.83990934 158.03651134 -99.78710938 159.63769531 C-97.47505365 162.89559201 -97.3146158 165.70024889 -97.78710938 169.63769531 C-100.24262922 174.45429194 -102.63021746 176.91873134 -107.78710938 178.63769531 C-113.08596855 178.54473287 -116.04218032 177.38262437 -119.78710938 173.63769531 C-122.10900787 169.85268269 -121.98562454 167.12916102 -121.40429688 162.83300781 C-120.44837339 159.43282428 -118.54729367 157.72466392 -115.78710938 155.63769531 C-115.12710938 155.63769531 -114.46710938 155.63769531 -113.78710938 155.63769531 C-113.91085937 154.62707031 -114.03460938 153.61644531 -114.16210938 152.57519531 C-113.72835966 148.02082332 -112.75274462 146.41874479 -109.67382812 143.19628906 C-106.3852651 140.47965004 -102.74905585 139.12192904 -98.78710938 137.63769531 C-96.61682967 136.77169563 -94.45022464 135.89643837 -92.28710938 135.01269531 C-91.26617187 134.60792969 -90.24523437 134.20316406 -89.19335938 133.78613281 C-86.64950591 132.8746346 -86.64950591 132.8746346 -85.78710938 130.63769531 C-85.700354 127.9387635 -85.6715304 125.26600301 -85.68945312 122.56738281 C-85.69086807 121.77115509 -85.69228302 120.97492737 -85.69374084 120.15457153 C-85.69934593 117.60724151 -85.71189924 115.05999884 -85.72460938 112.51269531 C-85.72962372 110.78743616 -85.73418674 109.06217564 -85.73828125 107.33691406 C-85.749317 103.1038074 -85.76658501 98.87076618 -85.78710938 94.63769531 C-86.85727295 94.18313965 -87.92743652 93.72858398 -89.0300293 93.26025391 C-90.46349533 92.64415103 -91.89683839 92.02776197 -93.33007812 91.41113281 C-94.03193237 91.11392334 -94.73378662 90.81671387 -95.45690918 90.51049805 C-117.04215678 81.18407725 -135.67273518 63.45890574 -150.91210938 45.88769531 C-151.6778125 45.00597656 -152.44351562 44.12425781 -153.23242188 43.21582031 C-154.78710938 40.63769531 -154.78710938 40.63769531 -154.78710938 38.11035156 C-153.5489075 35.04870397 -151.93973865 33.21477586 -149.66210938 30.82519531 C-148.84355469 29.95378906 -148.025 29.08238281 -147.18164062 28.18457031 C-145.99634766 26.92386719 -145.99634766 26.92386719 -144.78710938 25.63769531 C-143.63535122 24.28856428 -142.48896914 22.93481317 -141.34960938 21.57519531 C-103.92635009 -21.14542031 -47.14998964 -35.94220522 0 0 Z " fill="#101010" transform="translate(563.787109375,197.3623046875)"/>
<path d="M0 0 C10.29327157 8.57772631 17.15566544 18.79745435 20 32 C21.39858814 47.86481222 18.99588776 61.19757453 9 74 C2.44157278 81.32049799 -4.87555262 85.51332645 -14 89 C-14.68578125 89.26683594 -15.3715625 89.53367187 -16.078125 89.80859375 C-28.30426701 93.66248634 -41.77700643 90.97226359 -53.125 85.8125 C-65.08777447 79.44246478 -72.95655193 69.24962759 -77.2734375 56.54296875 C-81.36807892 42.21172377 -79.48455595 27.73561661 -72.3125 14.75 C-64.88194092 3.23918429 -54.0828165 -4.7505835 -40.8125 -8.1875 C-26.5271288 -11.04457424 -12.17188474 -7.91654245 0 0 Z " fill="#FAFAFA" transform="translate(534,195)"/>
<path d="M0 0 C0.75569275 -0.01283524 1.5113855 -0.02567047 2.28997803 -0.03889465 C3.08277161 -0.04628159 3.87556519 -0.05366852 4.69238281 -0.0612793 C5.5436676 -0.06935104 6.39495239 -0.07742279 7.27203369 -0.08573914 C9.07049578 -0.09950005 10.86898311 -0.11025752 12.66748047 -0.11816406 C14.46476171 -0.12958405 16.2620118 -0.14987359 18.05908203 -0.1796875 C28.0378477 -0.34455727 37.60446567 0.01834971 47.41894531 1.95043945 C48.21629089 2.10667282 49.01363647 2.26290619 49.83514404 2.4238739 C62.26299731 5.13187237 75.39356452 11.46538004 82.54394531 22.3293457 C87.77847203 31.10924335 88.32226795 42.06075207 85.98925781 51.9621582 C85.06109898 54.23054639 84.00155645 56.13689317 82.64550781 58.17700195 C82.15953125 58.94399414 81.67355469 59.71098633 81.17285156 60.5012207 C72.58798832 72.77980761 57.51257473 77.51525223 43.35385132 80.1987915 C35.50484756 81.54914589 27.69591626 81.55886197 19.75244141 81.45825195 C17.25180154 81.42676642 14.7517964 81.41722568 12.25097656 81.41137695 C-10.22806914 81.303425 -10.22806914 81.303425 -12.35449219 79.17700195 C-12.44947865 76.74304177 -12.48007636 74.33757243 -12.46801758 71.90332031 C-12.4681636 71.14239578 -12.46830963 70.38147125 -12.46846008 69.5974884 C-12.4677608 67.07057897 -12.45996774 64.54374233 -12.45214844 62.0168457 C-12.45028431 60.26949606 -12.44886038 58.52214589 -12.44786072 56.77479553 C-12.44403511 52.16668261 -12.43420447 47.558601 -12.42315674 42.95050049 C-12.41294352 38.25191675 -12.40836329 33.55332796 -12.40332031 28.85473633 C-12.39258224 19.62881108 -12.37550532 10.40290912 -12.35449219 1.17700195 C-3.82169156 0.0578551 -3.82169156 0.0578551 0 0 Z " fill="#040404" transform="translate(746.3544921875,72.822998046875)"/>
<path d="M0 0 C7.2515193 4.61460319 14.41799284 9.26654906 21.5 14.125 C22.43763184 14.76373047 23.37526367 15.40246094 24.34130859 16.06054688 C29.09210348 19.30077931 33.81878029 22.56937649 38.5078125 25.8984375 C39.37083984 26.5054248 40.23386719 27.11241211 41.12304688 27.73779297 C42.75942286 28.89034584 44.38869472 30.05306884 46.00976562 31.22705078 C47.10708008 31.99637939 47.10708008 31.99637939 48.2265625 32.78125 C48.86158691 33.23564453 49.49661133 33.69003906 50.15087891 34.15820312 C51.96603602 35.17209774 51.96603602 35.17209774 53.98681641 34.79833984 C56.22937412 33.90904034 58.00479274 32.82552388 59.984375 31.4453125 C60.74669434 30.9184082 61.50901367 30.39150391 62.29443359 29.84863281 C63.10477051 29.27983398 63.91510742 28.71103516 64.75 28.125 C66.01384521 27.24859863 66.01384521 27.24859863 67.30322266 26.35449219 C69.03671037 25.15230297 70.76864085 23.94786526 72.49902344 22.74121094 C76.1118726 20.22590049 79.74363141 17.73845818 83.375 15.25 C87.20178288 12.62536038 91.02059557 9.99126254 94.8125 7.31640625 C95.41400879 6.89391602 96.01551758 6.47142578 96.63525391 6.03613281 C98.2671694 4.88834156 99.895436 3.7353673 101.5234375 2.58203125 C104 1 104 1 106 1 C106 27.07 106 53.14 106 80 C98.08 80 90.16 80 82 80 C81.505 62.675 81.505 62.675 81 45 C78.586875 46.815 76.17375 48.63 73.6875 50.5 C67.169081 55.39565082 60.6148152 60.23509075 54 65 C50.95101603 63.58012579 48.35629733 61.89448239 45.6640625 59.8828125 C44.84679687 59.27566406 44.02953125 58.66851562 43.1875 58.04296875 C42.341875 57.41003906 41.49625 56.77710938 40.625 56.125 C38.95149007 54.87630413 37.27703236 53.62887735 35.6015625 52.3828125 C34.86244629 51.82996582 34.12333008 51.27711914 33.36181641 50.70751953 C30.62700862 48.73033888 27.80789755 46.8719317 25 45 C25 56.55 25 68.1 25 80 C16.75 80 8.5 80 0 80 C0 53.6 0 27.2 0 0 Z " fill="#030303" transform="translate(453,71)"/>
<path d="M0 0 C15.87962963 9.07407407 15.87962963 9.07407407 22.75 13.5 C31.77860281 19.25925036 40.88949692 24.8794412 50.01660156 30.48046875 C51.06686523 31.125 52.11712891 31.76953125 53.19921875 32.43359375 C54.58886841 33.28522095 54.58886841 33.28522095 56.0065918 34.15405273 C59.68101983 36.419965 63.33926098 38.71203811 67 41 C67.33 29.12 67.66 17.24 68 5 C75.92 5 83.84 5 92 5 C92 31.4 92 57.8 92 85 C76.12037037 75.92592593 76.12037037 75.92592593 69.25 71.5 C60.22139719 65.74074964 51.11050308 60.1205588 41.98339844 54.51953125 C40.93313477 53.875 39.88287109 53.23046875 38.80078125 52.56640625 C37.41113159 51.71477905 37.41113159 51.71477905 35.9934082 50.84594727 C32.31898017 48.580035 28.66073902 46.28796189 25 44 C25 55.88 25 67.76 25 80 C16.75 80 8.5 80 0 80 C0 53.6 0 27.2 0 0 Z " fill="#030303" transform="translate(623,71)"/>
<path d="M0 0 C1.09675049 0.00088623 2.19350098 0.00177246 3.32348633 0.00268555 C14.89401557 0.17005424 24.51596953 2.16423476 34.9375 7.375 C31.9675 13.645 28.9975 19.915 25.9375 26.375 C23.441875 25.715 20.94625 25.055 18.375 24.375 C5.99580563 21.33323455 -7.95843997 20.03829471 -19.375 26.6875 C-23.21664526 29.27410578 -25.97733183 32.20466366 -28.0625 36.375 C-28.62985892 41.02548294 -28.5223631 44.47230577 -26.375 48.6875 C-20.77344654 55.19741348 -14.53991023 58.22273065 -6.0625 59.375 C3.06527541 60.01279416 10.78491927 59.31096956 19.42578125 56.25 C21.9375 55.375 21.9375 55.375 23.9375 55.375 C23.9375 50.095 23.9375 44.815 23.9375 39.375 C31.5275 39.375 39.1175 39.375 46.9375 39.375 C47.20820339 43.73332452 47.4058112 48.074836 47.5625 52.4375 C47.64628906 53.66662109 47.73007812 54.89574219 47.81640625 56.16210938 C48.05846664 65.14254967 48.05846664 65.14254967 44.79443359 68.73120117 C42.24489273 70.52502026 39.72508482 71.98660989 36.9375 73.375 C35.72797223 74.10218364 34.51934064 74.83086543 33.3125 75.5625 C16.09162115 83.40869924 -5.93575643 84.4206066 -23.90625 78.6328125 C-35.58253457 73.97963969 -46.51561039 67.09252584 -52.0625 55.375 C-55.38805059 47.18450967 -55.90105369 35.56730297 -52.4375 27.3125 C-51.30859375 25.28125 -51.30859375 25.28125 -50.0625 23.375 C-49.66160156 22.7046875 -49.26070312 22.034375 -48.84765625 21.34375 C-41.21094797 9.83334911 -27.77531581 3.55063212 -14.61035156 0.77197266 C-9.75478464 0.0154422 -4.90553806 -0.00712742 0 0 Z " fill="#040404" transform="translate(243.0625,72.625)"/>
<path d="M0 0 C31.35 0 62.7 0 95 0 C95 6.6 95 13.2 95 20 C83.78 20 72.56 20 61 20 C61 38.15 61 56.3 61 75 C52.42 75 43.84 75 35 75 C35 56.85 35 38.7 35 20 C23.45 20 11.9 20 0 20 C0 13.4 0 6.8 0 0 Z " fill="#030303" transform="translate(344,76)"/>
<path d="M0 0 C10.29327157 8.57772631 17.15566544 18.79745435 20 32 C21.39858814 47.86481222 18.99588776 61.19757453 9 74 C2.44157278 81.32049799 -4.87555262 85.51332645 -14 89 C-14.68578125 89.26683594 -15.3715625 89.53367187 -16.078125 89.80859375 C-28.30426701 93.66248634 -41.77700643 90.97226359 -53.125 85.8125 C-65.08777447 79.44246478 -72.95655193 69.24962759 -77.2734375 56.54296875 C-81.36807892 42.21172377 -79.48455595 27.73561661 -72.3125 14.75 C-64.88194092 3.23918429 -54.0828165 -4.7505835 -40.8125 -8.1875 C-26.5271288 -11.04457424 -12.17188474 -7.91654245 0 0 Z M-22 -1 C-22.46019531 -0.51917969 -22.92039062 -0.03835937 -23.39453125 0.45703125 C-25.68751616 2.66075154 -27.56442544 2.50378973 -30.6875 2.6875 C-31.68136719 2.75324219 -32.67523438 2.81898438 -33.69921875 2.88671875 C-34.83810547 2.94279297 -34.83810547 2.94279297 -36 3 C-36 2.34 -36 1.68 -36 1 C-42.03849247 -0.74445338 -46.14695932 0.60874005 -51.74609375 3.3359375 C-54.11278458 4.77658274 -54.11278458 4.77658274 -54.78515625 6.9765625 C-54.93149772 8.98031494 -54.96811371 10.99116378 -55 13 C-56.625 15.4375 -56.625 15.4375 -59 17 C-60.134375 17.04125 -61.26875 17.0825 -62.4375 17.125 C-66.05249542 17.61048099 -66.05249542 17.61048099 -67.52734375 20.06640625 C-69.76326298 24.41510714 -72.11813604 29.03828641 -72 34 C-71.360625 34.598125 -70.72125 35.19625 -70.0625 35.8125 C-67.25011919 38.79532813 -67.55972359 40.91608866 -67.56640625 44.87890625 C-68.09554801 47.46741051 -69.14139841 48.20071548 -71 50 C-70.893601 55.42634921 -68.98486532 62.01513468 -65 66 C-62.32941149 66.14115161 -59.67567762 66.04247107 -57 66 C-56.67 66.99 -56.34 67.98 -56 69 C-54.515 69.99 -54.515 69.99 -53 71 C-52.87625 72.134375 -52.7525 73.26875 -52.625 74.4375 C-52.38605204 78.06868887 -52.38605204 78.06868887 -49.875 79.75 C-48.92625 80.1625 -47.9775 80.575 -47 81 C-45.2365625 81.86625 -45.2365625 81.86625 -43.4375 82.75 C-40.25571521 84.16216689 -40.25571521 84.16216689 -37.75 83.875 C-35.9154302 83.10055632 -35.9154302 83.10055632 -34.71484375 81.48828125 C-32.42925318 79.50465937 -30.79992677 79.50648875 -27.8125 79.3125 C-26.91144531 79.24675781 -26.01039063 79.18101562 -25.08203125 79.11328125 C-24.05142578 79.05720703 -24.05142578 79.05720703 -23 79 C-22.34 80.32 -21.68 81.64 -21 83 C-15.37417987 82.53118166 -9.15551956 81.15551956 -5 77 C-4.9175 75.9275 -4.835 74.855 -4.75 73.75 C-3.83852881 69.19264406 -2.71218794 67.74379109 1 65 C2.7325 64.9690625 2.7325 64.9690625 4.5 64.9375 C8.16245402 64.38228959 8.16245402 64.38228959 9.59375 61.45703125 C12.86374183 54.42460118 12.86374183 54.42460118 12 47 C10.515 46.01 10.515 46.01 9 45 C8.6015625 42.94140625 8.6015625 42.94140625 8.625 40.5625 C8.61339844 39.38880859 8.61339844 39.38880859 8.6015625 38.19140625 C9.08636879 35.52497163 10.03850939 34.78871682 12 33 C13.00801741 27.83391078 10.98829886 23.57681207 8.62890625 19.06640625 C7.19501532 16.87586824 7.19501532 16.87586824 5.02734375 16.27734375 C3.02142599 16.13111797 1.01022771 16.06381675 -1 16 C-3.4375 14.375 -3.4375 14.375 -5 12 C-5.165 10.824375 -5.33 9.64875 -5.5 8.4375 C-5.67069459 5.04492231 -5.67069459 5.04492231 -7.5625 3.25 C-12.39130914 0.77368762 -16.52164951 -1 -22 -1 Z " fill="#FAFAFA" transform="translate(534,195)"/>
<path d="M0 0 C8.25 0 16.5 0 25 0 C25 24.75 25 49.5 25 75 C16.75 75 8.5 75 0 75 C0 50.25 0 25.5 0 0 Z " fill="#060606" transform="translate(579,76)"/>
<path d="M0 0 C8.25 0 16.5 0 25 0 C25 24.75 25 49.5 25 75 C16.75 75 8.5 75 0 75 C0 50.25 0 25.5 0 0 Z " fill="#060606" transform="translate(306,76)"/>
<path d="M0 0 C5.42634921 0.106399 12.01513468 2.01513468 16 6 C16.103125 7.093125 16.20625 8.18625 16.3125 9.3125 C16.74323629 12.94350824 16.74323629 12.94350824 18.5625 15.375 C21.0583022 17.34871314 21.0583022 17.34871314 24.9375 17.125 C27.02734375 17.27734375 27.02734375 17.27734375 29 18 C32.18092799 22.03527795 33.76561764 26.38862131 34.5 31.4375 C34 34 34 34 32.49609375 35.37890625 C30.08825106 37.98792639 30.53485631 40.49994885 30.62890625 43.90234375 C30.83625519 46.21662348 30.83625519 46.21662348 33 48.0625 C33.66 48.371875 34.32 48.68125 35 49 C34.51545682 54.69338232 33.40178474 60.28040675 30 65 C26.5625 65.75 26.5625 65.75 23 66 C20 68 20 68 18 71 C17.835 72.19625 17.67 73.3925 17.5 74.625 C17 78 17 78 14.8125 79.75 C13.884375 80.1625 12.95625 80.575 12 81 C11.01 81.556875 10.02 82.11375 9 82.6875 C6.01072423 83.99530815 4.21025442 84.28325774 1 84 C0.34 82.68 -0.32 81.36 -1 80 C-7.71942156 80.01182772 -7.71942156 80.01182772 -13.3125 83.125 C-13.869375 83.74375 -14.42625 84.3625 -15 85 C-19.80713386 85 -24.74358021 82.11062138 -29 80 C-30 79 -30 79 -30.3125 75.625 C-30.62335189 71.95632047 -30.62335189 71.95632047 -33.0625 70.1875 C-33.701875 69.795625 -34.34125 69.40375 -35 69 C-35 68.34 -35 67.68 -35 67 C-36.258125 67.103125 -37.51625 67.20625 -38.8125 67.3125 C-41.03125 67.30859375 -41.03125 67.30859375 -43 67 C-44.8125 64.875 -44.8125 64.875 -46 62 C-46.556875 61.01 -47.11375 60.02 -47.6875 59 C-49.0195538 55.95530559 -49.529183 54.26329516 -49 51 C-48.50628906 50.54882812 -48.01257813 50.09765625 -47.50390625 49.6328125 C-45.09626328 47.01880013 -45.53703183 44.54939146 -45.625 41.140625 C-46.14725074 38.15944371 -47.84065343 37.02003388 -50 35 C-50.13257287 29.43193949 -47.27628498 23.43262086 -44 19 C-40.4375 18.125 -40.4375 18.125 -37 18 C-34.47993156 16.56338689 -34.47993156 16.56338689 -33 14 C-32.979375 12.700625 -32.95875 11.40125 -32.9375 10.0625 C-32.78515625 7.9765625 -32.78515625 7.9765625 -32 6 C-27.56670819 2.72689374 -22.39363471 0.40820398 -16.8125 1.1875 C-15.884375 1.455625 -14.95625 1.72375 -14 2 C-14 2.66 -14 3.32 -14 4 C-12.22825181 3.91276622 -10.45752623 3.80458345 -8.6875 3.6875 C-7.70136719 3.62949219 -6.71523438 3.57148438 -5.69921875 3.51171875 C-2.66973445 2.93738815 -2.02250393 2.18712634 0 0 Z M2 7 C1.66097656 7.48855469 1.32195313 7.97710937 0.97265625 8.48046875 C-1.98335078 10.75747218 -4.99069138 10.39697986 -8.5625 10.3125 C-9.24763672 10.31572266 -9.93277344 10.31894531 -10.63867188 10.32226562 C-15.73272414 10.26727586 -15.73272414 10.26727586 -18 8 C-20.61580479 8.3269756 -22.64078137 8.82039068 -25 10 C-25.0825 11.0725 -25.165 12.145 -25.25 13.25 C-26.25919574 18.29597871 -27.9392381 19.01658309 -32 22 C-32.99 23.485 -32.99 23.485 -34 25 C-37.625 26.1875 -37.625 26.1875 -41 27 C-41.76716851 29.85078091 -41.76716851 29.85078091 -42 33 C-41.27876953 33.62455078 -41.27876953 33.62455078 -40.54296875 34.26171875 C-38.13840988 36.97065216 -38.60287668 39.46026805 -38.625 43 C-38.61726563 44.2375 -38.60953125 45.475 -38.6015625 46.75 C-39 50 -39 50 -40.5234375 51.9375 C-41.01070313 52.288125 -41.49796875 52.63875 -42 53 C-41.34 55.31 -40.68 57.62 -40 60 C-39.01 60 -38.02 60 -37 60 C-32.30465946 60.66118061 -29.73774947 63.49526842 -26.6015625 66.85546875 C-24.60729955 69.52583548 -24 71.67377327 -24 75 C-21.69 75.66 -19.38 76.32 -17 77 C-16.66097656 76.51273437 -16.32195312 76.02546875 -15.97265625 75.5234375 C-13.01893847 73.24234852 -10.01243141 73.56412132 -6.4375 73.625 C-5.75236328 73.61339844 -5.06722656 73.60179687 -4.36132812 73.58984375 C-2.37109375 73.6015625 -2.37109375 73.6015625 1 74 C1.99 75.485 1.99 75.485 3 77 C6.465 76.01 6.465 76.01 10 75 C10.04125 73.948125 10.0825 72.89625 10.125 71.8125 C11.23400648 66.98040034 13.09121445 65.89250131 17 63 C17.495 62.2575 17.99 61.515 18.5 60.75 C20.66822426 58.22040503 22.78483313 58.28579261 26 58 C26.99 55.03 26.99 55.03 28 52 C27.52304687 51.6596875 27.04609375 51.319375 26.5546875 50.96875 C24.26711556 48.07192523 24.31456769 45.05439426 24.125 41.5 C24.06570313 40.82324219 24.00640625 40.14648438 23.9453125 39.44921875 C23.63202068 34.48550151 23.63202068 34.48550151 25.4921875 32.03125 C25.98976563 31.6909375 26.48734375 31.350625 27 31 C26.01 27.535 26.01 27.535 25 24 C24.154375 24.144375 23.30875 24.28875 22.4375 24.4375 C17.90973591 23.86123912 16.47749069 21.93098625 13.515625 18.62890625 C12.07781263 16.89299932 12.07781263 16.89299932 10 16 C9.59270772 13.67843403 9.25561323 11.3431213 9 9 C6.69 8.34 4.38 7.68 2 7 Z " fill="#121212" transform="translate(512,194)"/>
<path d="M0 0 C31.08567499 -0.6431519 31.08567499 -0.6431519 43 7 C46.14046975 10.38840157 48.82631742 13.5236981 49.375 18.1875 C48.85107574 23.51406335 47.28836871 27.59348182 43.5625 31.51171875 C34.28074799 38.94158274 20.90297125 39.16780637 9.5625 39.0625 C6.406875 39.041875 3.25125 39.02125 0 39 C0 26.13 0 13.26 0 0 Z " fill="#FDFDFD" transform="translate(759,94)"/>
<path d="M0 0 C20.28133586 7.665098 39.63857648 25.23909925 53 42 C53 42.66 53 43.32 53 44 C53.66 44 54.32 44 55 44 C52.53496618 49.57476878 48.13235549 53.61379982 44 58 C43.52626953 58.50772949 43.05253906 59.01545898 42.56445312 59.53857422 C30.72778519 72.14128144 16.84843412 83.76484529 1 91 C0.34 90.67 -0.32 90.34 -1 90 C-0.05640625 89.25169922 -0.05640625 89.25169922 0.90625 88.48828125 C11.79970601 79.35024661 19.794148 67.20386819 21.21875 52.78613281 C22.32637309 35.97102982 18.58959047 20.57814889 7.375 7.5625 C4.98158194 4.97803305 2.54143249 2.43977519 0 0 Z " fill="#FBFBFB" transform="translate(539,191)"/>
<path d="M0 0 C0.66 0.33 1.32 0.66 2 1 C1.50371094 1.43828125 1.00742187 1.8765625 0.49609375 2.328125 C-10.50080322 12.59467777 -16.85849966 25.97300279 -17.41992188 41.07202148 C-17.5615732 57.61571545 -11.89322542 71.45061374 -0.50390625 83.48828125 C0.24052734 84.23658203 0.24052734 84.23658203 1 85 C0.01 85.495 0.01 85.495 -1 86 C-3.24305927 84.78539103 -5.31696181 83.52970203 -7.4375 82.125 C-8.06495117 81.71443359 -8.69240234 81.30386719 -9.33886719 80.88085938 C-15.22055198 76.9677019 -20.66549761 72.63025094 -26 68 C-27.22783203 66.95585937 -27.22783203 66.95585937 -28.48046875 65.890625 C-33.44075545 61.56910336 -38.0599241 56.97755991 -42.5625 52.1875 C-43.0877124 51.63610352 -43.6129248 51.08470703 -44.15405273 50.51660156 C-46.05178454 48.45959977 -47.76008623 46.41461607 -49.1640625 43.98828125 C-48.87487806 40.48364123 -46.17503974 38.38639658 -43.8125 36 C-42.99036011 35.14559326 -42.99036011 35.14559326 -42.15161133 34.27392578 C-41.00548225 33.08761905 -39.85359837 31.90684767 -38.69628906 30.73144531 C-37.12681066 29.12943886 -35.58748805 27.50418932 -34.0546875 25.8671875 C-24.57897869 15.8888443 -12.66078019 5.6507061 0 0 Z " fill="#FBFBFB" transform="translate(466,193)"/>
<path d="M0 0 C4.02969898 2.85027489 6.64332947 6.29050593 8.5625 10.8125 C9.31165483 16.70844582 9.03601482 21.83379543 5.5625 26.8125 C1.30542089 30.97497736 -2.50446476 33.7558076 -8.60546875 33.84375 C-13.87067224 33.49097255 -17.34825765 32.3311504 -21.4375 28.8125 C-25.28252784 23.7204361 -26.91995187 19.61757802 -26.84765625 13.296875 C-25.90013679 7.55761428 -22.26009343 3.21123449 -17.75 -0.25 C-11.73165618 -1.95330486 -5.92885012 -2.04814822 0 0 Z " fill="#FDFDFD" transform="translate(513.4375,220.1875)"/>
<path d="M0 0 C6.93489554 3.9077586 11.3508834 9.27859002 13.6875 16.9375 C14.83639938 25.46204976 12.39596783 31.52370058 8 38.6875 C2.83065181 43.71713607 -3.39994419 46.63653417 -10.5625 47.1875 C-18.94094602 46.62893693 -24.64473678 43.05767891 -30.3125 36.9375 C-34.61031366 31.00478316 -36.17521857 25.22684677 -35.3125 17.9375 C-33.41324525 10.20741218 -29.85501258 5.39830403 -23.3125 0.9375 C-15.86299739 -3.41975624 -7.79934226 -3.55903721 0 0 Z M-25.69140625 11.51171875 C-28.71999261 16.03876944 -29.21619596 20.62486314 -28.3125 25.9375 C-26.56805725 31.21747112 -24.11239174 34.96613844 -19.3125 37.9375 C-14.22616295 40.36506995 -9.69044194 40.26991649 -4.3125 38.9375 C0.97044713 36.14650906 4.7735914 32.6792258 6.6875 26.9375 C7.48568422 20.51781832 6.90262632 15.8855189 3.125 10.5625 C1.22909997 8.41930867 -0.72092904 7.12822179 -3.3125 5.9375 C-3.9725 5.6075 -4.6325 5.2775 -5.3125 4.9375 C-13.68649502 3.95066557 -19.99132754 5.00426345 -25.69140625 11.51171875 Z " fill="#131313" transform="translate(515.3125,214.0625)"/>
<path d="M0 0 C5.8013091 0 8.27022935 2.86111974 12.23046875 6.60546875 C16.12624826 9.97375202 20.36250749 12.709089 24.68334961 15.49780273 C28.28793835 17.82923921 31.6929639 20.24834401 35 23 C34.67 24.32 34.34 25.64 34 27 C27.77308607 26.62040862 24.17231313 24.57188194 19.1875 20.9375 C18.49188965 20.44451416 17.7962793 19.95152832 17.07958984 19.44360352 C4.32925989 10.32925989 4.32925989 10.32925989 -1 5 C-0.625 2.375 -0.625 2.375 0 0 Z " fill="#121212" transform="translate(425,264)"/>
<path d="M0 0 C6.57692308 0.57692308 6.57692308 0.57692308 8 2 C7.71269945 4.33944736 7.38063221 6.6739143 7 9 C4.69 9.33 2.38 9.66 0 10 C-2.14915785 6.77626323 -2.38286803 5.73296326 -2 2 C-1.34 1.34 -0.68 0.68 0 0 Z " fill="#F7F7F7" transform="translate(451,359)"/>
<path d="M0 0 C2.5625 0.3125 2.5625 0.3125 4.4375 1.4375 C6.11540631 4.23401052 5.31125648 6.24940532 4.5625 9.3125 C1.1875 9.9375 1.1875 9.9375 -2.4375 10.3125 C-4.4375 8.3125 -4.4375 8.3125 -4.6875 5.3125 C-4.37675292 1.58353509 -3.7821044 0.48488518 0 0 Z " fill="#F8F8F8" transform="translate(504.4375,413.6875)"/>
<path d="M0 0 C3.625 0.375 3.625 0.375 7 1 C8.32278481 6.41139241 8.32278481 6.41139241 6.9375 8.9375 C4.08906752 10.49954362 2.06495097 9.74921024 -1 9 C-1.625 5.625 -1.625 5.625 -2 2 C-1.34 1.34 -0.68 0.68 0 0 Z " fill="#F7F7F7" transform="translate(530,384)"/>
<path d="M0 0 C2.5625 0.3125 2.5625 0.3125 4.4375 1.5 C5.5625 3.3125 5.5625 3.3125 5.375 5.875 C4.5625 8.3125 4.5625 8.3125 2.5625 10.3125 C0.0625 10.5625 0.0625 10.5625 -2.4375 10.3125 C-4.4375 8.3125 -4.4375 8.3125 -4.6875 5.3125 C-4.37675292 1.58353509 -3.7821044 0.48488518 0 0 Z " fill="#F8F8F8" transform="translate(555.4375,358.6875)"/>
<path d="M0 0 C2.5625 0.375 2.5625 0.375 4.5 2.0625 C5.5625 4.375 5.5625 4.375 4.8125 7.0625 C3.5625 9.375 3.5625 9.375 2.5625 10.375 C0.125 10.5625 0.125 10.5625 -2.4375 10.375 C-4.4375 8.375 -4.4375 8.375 -4.6875 5.375 C-4.37594563 1.63634762 -3.76270131 0.57887713 0 0 Z " fill="#FCFCFC" transform="translate(476.4375,383.625)"/>
<path d="M0 0 C2.2109885 0.42793326 3.98119242 0.99059621 6 2 C6 3.65 6 5.3 6 7 C3.6875 7.6875 3.6875 7.6875 1 8 C-0.875 6.8125 -0.875 6.8125 -2 5 C-1.74853421 2.86254078 -1.54074221 1.54074221 0 0 Z " fill="#1D1D1D" transform="translate(416,255)"/>
</svg>
